<svg xmlns="http://www.w3.org/2000/svg" width="32" height="32" viewBox="0 0 212 189">
  <g fill="none" fill-rule="evenodd">
    <polygon fill="#E17726" points="60.75 173.25 88.313 180.563 88.313 171 90.563 168.75 106.313 168.75 106.313 180 106.313 187.875 89.438 187.875 68.625 178.875"/>
    <polygon fill="#E27625" points="105.938 173.25 132.063 180.563 132.063 171 134.313 168.75 150.063 168.75 150.063 180 150.063 187.875 133.188 187.875 112.375 178.875"/>
    <polygon fill="#E27625" points="170.313 142.313 176.438 108.563 149.063 109.938 150.063 134.063"/>
    <polygon fill="#E27625" points="41.063 142.313 34.938 108.563 62.313 109.938 61.313 134.063"/>
    <polygon fill="#E27625" points="112.5 57.188 116.438 75.938 119.25 134.063 98.438 131.625 81 131.625 80.563 105.938 84.938 57.188"/>
    <polygon fill="#E27625" points="170.313 142.313 149.063 109.938 150.063 134.063"/>
    <polygon fill="#E27625" points="41.063 142.313 62.313 109.938 61.313 134.063"/>
    <polygon fill="#D5BFB2" points="88.313 171 90.563 168.75 106.313 168.75 106.313 180 106.313 187.875 89.438 187.875"/>
    <polygon fill="#233447" points="150.063 168.75 132.063 171 132.063 180.563 132.063 187.875 150.063 187.875 150.063 180"/>
    <g transform="translate(0, -1)">
      <polygon fill="#CC6228" points="112.5 57.188 84.938 57.188 80.563 105.938 81 131.625 98.438 131.625 119.25 134.063 116.438 75.938"/>
      <polygon fill="#CC6228" points="0 0 39.375 0 34.938 108.563 62.313 109.938 61.313 134.063 41.063 142.313 37.125 117.938"/>
      <polygon fill="#CC6228" points="170.313 142.313 149.063 109.938 150.063 134.063"/>
      <polygon fill="#E27525" points="132.063 171 88.313 171 89.438 187.875 112.375 178.875"/>
      <polygon fill="#E27525" points="0 0 39.375 0 34.938 108.563 62.313 109.938"/>
    </g>
  </g>
</svg>
